<?xml version="1.0" encoding="utf-8"?>
<!-- Generator: Adobe Illustrator 20.0.0, SVG Export Plug-In . SVG Version: 6.00 Build 0)  -->
<svg version="1.1" id="Layer_1" xmlns="http://www.w3.org/2000/svg" xmlns:xlink="http://www.w3.org/1999/xlink" x="0px" y="0px"
	 viewBox="0 0 1837.4 212" style="enable-background:new 0 0 1837.4 212;" xml:space="preserve">
<style type="text/css">
	.st0{fill:#EAC19B;}
	.st1{fill:#754C29;}
</style>
<g>
	<rect class="st0" width="1837.4" height="212"/>
	<g>
		<g>
			<g>
				<path class="st1" d="M489.6,12.3c4.1-1.2,8-3,11.6-5.3c2.7-1.7,0.2-6.1-2.5-4.3c-3.3,2.1-6.7,3.6-10.4,4.8
					C485.2,8.4,486.5,13.2,489.6,12.3L489.6,12.3z"/>
			</g>
		</g>
		<g>
			<g>
				<g>
					<path class="st1" d="M114.5,27.9c9.3-3.6,18.7-7.1,28-10.7c3-1.1,1.7-6-1.3-4.8c-9.3,3.6-18.7,7.1-28,10.7
						C110.2,24.2,111.5,29.1,114.5,27.9L114.5,27.9z"/>
				</g>
			</g>
			<g>
				<g>
					<path class="st1" d="M78.6,80.4c9.7-1.9,19.3-3.9,29-5.8c3.2-0.6,1.8-5.5-1.3-4.8c-9.7,1.9-19.3,3.9-29,5.8
						C74.1,76.2,75.5,81,78.6,80.4L78.6,80.4z"/>
				</g>
			</g>
			<g>
				<g>
					<path class="st1" d="M72.6,121.7c8.4-1.6,16.8-2.7,25.3-3.2c3.2-0.2,3.2-5.2,0-5c-9,0.6-17.8,1.7-26.7,3.4
						C68.1,117.5,69.4,122.3,72.6,121.7L72.6,121.7z"/>
				</g>
			</g>
			<g>
				<g>
					<path class="st1" d="M178.9,65.4c5.3-0.4,10.5-1.2,15.7-2.6c3.1-0.8,1.8-5.6-1.3-4.8c-4.7,1.2-9.5,2-14.3,2.4
						C175.7,60.6,175.7,65.6,178.9,65.4L178.9,65.4z"/>
				</g>
			</g>
			<g>
				<g>
					<path class="st1" d="M214.6,23.8c9.3-3.6,18.7-7.2,28-10.8c3-1.1,1.7-6-1.3-4.8c-9.3,3.6-18.7,7.2-28,10.8
						C210.3,20.1,211.6,25,214.6,23.8L214.6,23.8z"/>
				</g>
			</g>
			<g>
				<g>
					<path class="st1" d="M234.6,94.3c8.7-1.9,17.3-3.9,26-5.8c3.1-0.7,1.8-5.5-1.3-4.8c-8.7,1.9-17.3,3.9-26,5.8
						C230.1,90.2,231.4,95,234.6,94.3L234.6,94.3z"/>
				</g>
			</g>
			<g>
				<g>
					<path class="st1" d="M155.9,149.9c5.7,0,11.3,0,17,0c3.2,0,3.2-5,0-5c-5.7,0-11.3,0-17,0C152.7,144.9,152.7,149.9,155.9,149.9
						L155.9,149.9z"/>
				</g>
			</g>
			<g>
				<g>
					<path class="st1" d="M101.6,205.4c9.7-3.3,19.3-6.6,29-10c3-1,1.7-5.9-1.3-4.8c-9.7,3.3-19.3,6.6-29,10
						C97.2,201.7,98.5,206.5,101.6,205.4L101.6,205.4z"/>
				</g>
			</g>
			<g>
				<g>
					<path class="st1" d="M243.6,185.8c12.5-2.7,24.8-6.1,36.9-10.3c3-1,1.7-5.9-1.3-4.8c-12.1,4.2-24.4,7.6-36.9,10.3
						C239.2,181.6,240.5,186.4,243.6,185.8L243.6,185.8z"/>
				</g>
			</g>
			<g>
				<g>
					<path class="st1" d="M293.7,135.9c6.5-2.2,12.7-5.1,18.5-8.8c2.7-1.7,0.2-6.1-2.5-4.3c-5.4,3.5-11.2,6.2-17.3,8.3
						C289.3,132.2,290.6,137,293.7,135.9L293.7,135.9z"/>
				</g>
			</g>
			<g>
				<g>
					<path class="st1" d="M332.5,85c6.6-2.8,13.3-5.2,20.1-7.2c3.1-0.9,1.8-5.7-1.3-4.8c-6.8,2-13.6,4.4-20.1,7.2
						C328.2,81.4,329.5,86.2,332.5,85L332.5,85z"/>
				</g>
			</g>
			<g>
				<g>
					<path class="st1" d="M364.5,36.9c11.8-4.4,23.8-7.9,36.1-10.5c3.1-0.7,1.8-5.5-1.3-4.8c-12.3,2.6-24.4,6.1-36.1,10.5
						C360.2,33.2,361.4,38,364.5,36.9L364.5,36.9z"/>
				</g>
			</g>
			<g>
				<g>
					<path class="st1" d="M421.9,76.4c11.9-1.5,23.8-3.2,35.6-5.4c3.2-0.6,1.8-5.4-1.3-4.8c-11.4,2-22.8,3.8-34.3,5.2
						C418.8,71.8,418.8,76.8,421.9,76.4L421.9,76.4z"/>
				</g>
			</g>
			<g>
				<g>
					<path class="st1" d="M410.5,122.4c11-1.6,22-3.3,33-4.9c3.2-0.5,1.8-5.3-1.3-4.8c-11,1.6-22,3.3-33,4.9
						C406,118,407.4,122.8,410.5,122.4L410.5,122.4z"/>
				</g>
			</g>
			<g>
				<g>
					<path class="st1" d="M407.6,177.3c9.7-2.1,19.4-3.5,29.3-4.1c3.2-0.2,3.2-5.2,0-5c-10.3,0.6-20.5,2.1-30.6,4.3
						C403.1,173.2,404.4,178,407.6,177.3L407.6,177.3z"/>
				</g>
			</g>
			<g>
				<g>
					<path class="st1" d="M336.5,174.7c9.3-3.9,18.7-7.7,28-11.6c2.9-1.2,1.6-6.1-1.3-4.8c-9.3,3.9-18.7,7.7-28,11.6
						C332.3,171.1,333.6,175.9,336.5,174.7L336.5,174.7z"/>
				</g>
			</g>
		</g>
		<g>
			<g>
				<g>
					<path class="st1" d="M830.8,27.9c9.3-3.6,18.7-7.1,28-10.7c3-1.1,1.7-6-1.3-4.8c-9.3,3.6-18.7,7.1-28,10.7
						C826.4,24.2,827.7,29.1,830.8,27.9L830.8,27.9z"/>
				</g>
			</g>
			<g>
				<g>
					<path class="st1" d="M794.8,80.4c9.7-1.9,19.3-3.9,29-5.8c3.2-0.6,1.8-5.5-1.3-4.8c-9.7,1.9-19.3,3.9-29,5.8
						C790.3,76.2,791.7,81,794.8,80.4L794.8,80.4z"/>
				</g>
			</g>
			<g>
				<g>
					<path class="st1" d="M788.8,121.7c8.4-1.6,16.8-2.7,25.3-3.2c3.2-0.2,3.2-5.2,0-5c-9,0.6-17.8,1.7-26.7,3.4
						C784.3,117.5,785.6,122.3,788.8,121.7L788.8,121.7z"/>
				</g>
			</g>
			<g>
				<g>
					<path class="st1" d="M895.1,65.4c5.3-0.4,10.5-1.2,15.7-2.6c3.1-0.8,1.8-5.6-1.3-4.8c-4.7,1.2-9.5,2-14.3,2.4
						C891.9,60.6,891.9,65.6,895.1,65.4L895.1,65.4z"/>
				</g>
			</g>
			<g>
				<g>
					<path class="st1" d="M930.8,23.8c9.3-3.6,18.7-7.2,28-10.8c3-1.1,1.7-6-1.3-4.8c-9.3,3.6-18.7,7.2-28,10.8
						C926.5,20.1,927.8,25,930.8,23.8L930.8,23.8z"/>
				</g>
			</g>
			<g>
				<g>
					<path class="st1" d="M950.8,94.3c8.7-1.9,17.3-3.9,26-5.8c3.1-0.7,1.8-5.5-1.3-4.8c-8.7,1.9-17.3,3.9-26,5.8
						C946.3,90.2,947.6,95,950.8,94.3L950.8,94.3z"/>
				</g>
			</g>
			<g>
				<g>
					<path class="st1" d="M872.1,149.9c12.7,0,25.3,0,38,0c3.2,0,3.2-5,0-5c-12.7,0-25.3,0-38,0
						C868.9,144.9,868.9,149.9,872.1,149.9L872.1,149.9z"/>
				</g>
			</g>
			<g>
				<g>
					<path class="st1" d="M817.8,205.4c9.7-3.3,19.3-6.6,29-10c3-1,1.7-5.9-1.3-4.8c-9.7,3.3-19.3,6.6-29,10
						C813.4,201.7,814.7,206.5,817.8,205.4L817.8,205.4z"/>
				</g>
			</g>
			<g>
				<g>
					<path class="st1" d="M959.9,185.8c12.5-2.7,24.8-6.1,36.9-10.3c3-1,1.7-5.9-1.3-4.8c-12.1,4.2-24.4,7.6-36.9,10.3
						C955.4,181.6,956.7,186.4,959.9,185.8L959.9,185.8z"/>
				</g>
			</g>
			<g>
				<g>
					<path class="st1" d="M1009.9,135.9c6.5-2.2,12.7-5.1,18.5-8.8c2.7-1.7,0.2-6.1-2.5-4.3c-5.4,3.5-11.2,6.2-17.3,8.3
						C1005.5,132.2,1006.8,137,1009.9,135.9L1009.9,135.9z"/>
				</g>
			</g>
			<g>
				<g>
					<path class="st1" d="M1048.7,85c6.6-2.8,13.3-5.2,20.1-7.2c3.1-0.9,1.8-5.7-1.3-4.8c-6.8,2-13.6,4.4-20.1,7.2
						C1044.4,81.4,1045.7,86.2,1048.7,85L1048.7,85z"/>
				</g>
			</g>
			<g>
				<g>
					<path class="st1" d="M1080.7,36.9c11.8-4.4,23.8-7.9,36.1-10.5c3.1-0.7,1.8-5.5-1.3-4.8c-12.3,2.6-24.4,6.1-36.1,10.5
						C1076.4,33.2,1077.7,38,1080.7,36.9L1080.7,36.9z"/>
				</g>
			</g>
			<g>
				<g>
					<path class="st1" d="M1138.2,76.4c11.9-1.5,23.8-3.2,35.6-5.4c3.2-0.6,1.8-5.4-1.3-4.8c-11.4,2-22.8,3.8-34.3,5.2
						C1135,71.8,1135,76.8,1138.2,76.4L1138.2,76.4z"/>
				</g>
			</g>
			<g>
				<g>
					<path class="st1" d="M1126.8,122.4c11-1.6,22-3.3,33-4.9c3.2-0.5,1.8-5.3-1.3-4.8c-11,1.6-22,3.3-33,4.9
						C1122.3,118,1123.6,122.8,1126.8,122.4L1126.8,122.4z"/>
				</g>
			</g>
			<g>
				<g>
					<path class="st1" d="M1123.8,177.3c9.7-2.1,19.4-3.5,29.3-4.1c3.2-0.2,3.2-5.2,0-5c-10.3,0.6-20.5,2.1-30.6,4.3
						C1119.3,173.2,1120.7,178,1123.8,177.3L1123.8,177.3z"/>
				</g>
			</g>
			<g>
				<g>
					<path class="st1" d="M1052.8,174.7c9.3-3.9,18.7-7.7,28-11.6c2.9-1.2,1.6-6.1-1.3-4.8c-9.3,3.9-18.7,7.7-28,11.6
						C1048.5,171.1,1049.8,175.9,1052.8,174.7L1052.8,174.7z"/>
				</g>
			</g>
		</g>
		<g>
			<g>
				<path class="st1" d="M490.2,206.8c8.3-3.9,16.7-7.7,25-11.6c2.9-1.4,0.4-5.7-2.5-4.3c-8.3,3.9-16.7,7.7-25,11.6
					C484.7,203.8,487.3,208.2,490.2,206.8L490.2,206.8z"/>
			</g>
		</g>
		<g>
			<g>
				<path class="st1" d="M512.1,162.8c8.5-4.7,17.3-8.7,26.5-12.1c3-1.1,1.7-6-1.3-4.8c-9.5,3.6-18.7,7.7-27.6,12.6
					C506.8,160,509.3,164.4,512.1,162.8L512.1,162.8z"/>
			</g>
		</g>
		<g>
			<g>
				<path class="st1" d="M524,80.6c9.3-4.2,18.8-7.5,28.6-10.2c3.1-0.9,1.8-5.7-1.3-4.8c-10.2,2.8-20.1,6.4-29.8,10.7
					C518.6,77.5,521.1,81.9,524,80.6L524,80.6z"/>
			</g>
		</g>
		<g>
			<g>
				<path class="st1" d="M535.9,32.2c6.7-0.8,13.3-1.7,20-2.5c3.2-0.4,3.2-5.4,0-5c-6.7,0.8-13.3,1.7-20,2.5
					C532.8,27.6,532.7,32.6,535.9,32.2L535.9,32.2z"/>
			</g>
		</g>
		<g>
			<g>
				<path class="st1" d="M650.6,30.5c7.1-1.3,14.2-2.1,21.3-2.4c3.2-0.1,3.2-5.1,0-5c-7.6,0.3-15.2,1.2-22.7,2.6
					C646.1,26.2,647.4,31.1,650.6,30.5L650.6,30.5z"/>
			</g>
		</g>
		<g>
			<g>
				<path class="st1" d="M557.9,112.7c9.3-0.9,18.5-2.4,27.6-4.4c3.1-0.7,1.8-5.5-1.3-4.8c-8.7,1.9-17.5,3.3-26.3,4.2
					C554.7,108.1,554.7,113.1,557.9,112.7L557.9,112.7z"/>
			</g>
		</g>
		<g>
			<g>
				<path class="st1" d="M604.6,75.2c9.6-2,19.3-4,28.9-6c3.1-0.7,1.8-5.5-1.3-4.8c-9.6,2-19.3,4-28.9,6
					C600.1,71,601.4,75.8,604.6,75.2L604.6,75.2z"/>
			</g>
		</g>
		<g>
			<g>
				<path class="st1" d="M688.5,71.9c12.7-5,25.3-9.9,38-14.9c3-1.2,1.7-6-1.3-4.8c-12.7,5-25.3,9.9-38,14.9
					C684.2,68.2,685.5,73,688.5,71.9L688.5,71.9z"/>
			</g>
		</g>
		<g>
			<g>
				<path class="st1" d="M746.9,33.9c6.7-0.8,13.3-1.7,20-2.5c3.2-0.4,3.2-5.4,0-5c-6.7,0.8-13.3,1.7-20,2.5
					C743.8,29.3,743.7,34.3,746.9,33.9L746.9,33.9z"/>
			</g>
		</g>
		<g>
			<g>
				<path class="st1" d="M700.9,111.8c7.4,0.4,14.7,0.1,22-0.7c3.2-0.4,3.2-5.4,0-5c-7.3,0.9-14.6,1.1-22,0.7
					C697.7,106.6,697.7,111.6,700.9,111.8L700.9,111.8z"/>
			</g>
		</g>
		<g>
			<g>
				<path class="st1" d="M632.6,127.6c10.1-2.1,20.1-4.6,29.9-7.6c3.1-0.9,1.8-5.8-1.3-4.8c-9.9,3-19.8,5.6-29.9,7.6
					C628.1,123.4,629.5,128.2,632.6,127.6L632.6,127.6z"/>
			</g>
		</g>
		<g>
			<g>
				<path class="st1" d="M589.9,167.5c11-0.9,22-1.7,33-2.6c3.2-0.3,3.2-5.3,0-5c-11,0.9-22,1.7-33,2.6
					C586.7,162.8,586.7,167.8,589.9,167.5L589.9,167.5z"/>
			</g>
		</g>
		<g>
			<g>
				<path class="st1" d="M580.5,204.5c9.4-3,18.7-5.9,28.1-8.9c3.1-1,1.8-5.8-1.3-4.8c-9.4,3-18.7,5.9-28.1,8.9
					C576.1,200.6,577.4,205.4,580.5,204.5L580.5,204.5z"/>
			</g>
		</g>
		<g>
			<g>
				<path class="st1" d="M664.5,148.9c8-2.7,16-5.5,24-8.2c3-1,1.7-5.9-1.3-4.8c-8,2.7-16,5.5-24,8.2
					C660.2,145.1,661.5,150,664.5,148.9L664.5,148.9z"/>
			</g>
		</g>
		<g>
			<g>
				<path class="st1" d="M728.9,160c12-0.4,23.9-1.9,35.6-4.5c3.1-0.7,1.8-5.5-1.3-4.8c-11.3,2.4-22.7,3.9-34.3,4.3
					C725.7,155.1,725.7,160.1,728.9,160L728.9,160z"/>
			</g>
		</g>
		<g>
			<g>
				<path class="st1" d="M671.5,189.6c6.7-1.1,13.3-2.2,20-3.3c3.2-0.5,1.8-5.3-1.3-4.8c-6.7,1.1-13.3,2.2-20,3.3
					C667.1,185.3,668.4,190.1,671.5,189.6L671.5,189.6z"/>
			</g>
		</g>
		<g>
			<g>
				<path class="st1" d="M717.6,209.8c10.5-2.1,20.7-5.4,30.5-9.7c2.9-1.3,0.4-5.6-2.5-4.3c-9.4,4.1-19.2,7.1-29.3,9.2
					C713.2,205.6,714.5,210.4,717.6,209.8L717.6,209.8z"/>
			</g>
		</g>
		<g>
			<g>
				<path class="st1" d="M786.6,179.8c7.8-2.2,15.4-4.7,22.9-7.6c3-1.1,1.7-6-1.3-4.8c-7.5,2.9-15.2,5.5-22.9,7.6
					C782.2,175.9,783.5,180.7,786.6,179.8L786.6,179.8z"/>
			</g>
		</g>
		<g>
			<g>
				<path class="st1" d="M17.6,183.9c10.3-1.4,20.7-2.8,31-4.2c3.2-0.4,1.8-5.2-1.3-4.8c-10.3,1.4-20.7,2.8-31,4.2
					C13.1,179.5,14.4,184.3,17.6,183.9L17.6,183.9z"/>
			</g>
		</g>
		<g>
			<g>
				<path class="st1" d="M28.6,43c15.3-2.5,30.6-5.1,46-7.6c3.2-0.5,1.8-5.3-1.3-4.8c-15.3,2.5-30.6,5.1-46,7.6
					C24.1,38.7,25.4,43.5,28.6,43L28.6,43z"/>
			</g>
		</g>
		<g>
			<g>
				<path class="st1" d="M1670.7,12.3c4.1-1.2,8-3,11.6-5.3c2.7-1.7,0.2-6.1-2.5-4.3c-3.3,2.1-6.7,3.6-10.4,4.8
					C1666.3,8.4,1667.6,13.2,1670.7,12.3L1670.7,12.3z"/>
			</g>
		</g>
		<g>
			<g>
				<g>
					<path class="st1" d="M1295.6,27.9c9.3-3.6,18.7-7.1,28-10.7c3-1.1,1.7-6-1.3-4.8c-9.3,3.6-18.7,7.1-28,10.7
						C1291.3,24.2,1292.6,29.1,1295.6,27.9L1295.6,27.9z"/>
				</g>
			</g>
			<g>
				<g>
					<path class="st1" d="M1259.7,80.4c9.7-1.9,19.3-3.9,29-5.8c3.2-0.6,1.8-5.5-1.3-4.8c-9.7,1.9-19.3,3.9-29,5.8
						C1255.2,76.2,1256.5,81,1259.7,80.4L1259.7,80.4z"/>
				</g>
			</g>
			<g>
				<g>
					<path class="st1" d="M1253.6,121.7c8.4-1.6,16.8-2.7,25.3-3.2c3.2-0.2,3.2-5.2,0-5c-9,0.6-17.8,1.7-26.7,3.4
						C1249.2,117.5,1250.5,122.3,1253.6,121.7L1253.6,121.7z"/>
				</g>
			</g>
			<g>
				<g>
					<path class="st1" d="M1360,65.4c5.3-0.4,10.5-1.2,15.7-2.6c3.1-0.8,1.8-5.6-1.3-4.8c-4.7,1.2-9.5,2-14.3,2.4
						C1356.8,60.6,1356.8,65.6,1360,65.4L1360,65.4z"/>
				</g>
			</g>
			<g>
				<g>
					<path class="st1" d="M1395.6,23.8c9.3-3.6,18.7-7.2,28-10.8c3-1.1,1.7-6-1.3-4.8c-9.3,3.6-18.7,7.2-28,10.8
						C1391.3,20.1,1392.6,25,1395.6,23.8L1395.6,23.8z"/>
				</g>
			</g>
			<g>
				<g>
					<path class="st1" d="M1415.6,94.3c8.7-1.9,17.3-3.9,26-5.8c3.1-0.7,1.8-5.5-1.3-4.8c-8.7,1.9-17.3,3.9-26,5.8
						C1411.2,90.2,1412.5,95,1415.6,94.3L1415.6,94.3z"/>
				</g>
			</g>
			<g>
				<g>
					<path class="st1" d="M1337,149.9c5.7,0,11.3,0,17,0c3.2,0,3.2-5,0-5c-5.7,0-11.3,0-17,0C1333.8,144.9,1333.8,149.9,1337,149.9
						L1337,149.9z"/>
				</g>
			</g>
			<g>
				<g>
					<path class="st1" d="M1282.7,205.4c9.7-3.3,19.3-6.6,29-10c3-1,1.7-5.9-1.3-4.8c-9.7,3.3-19.3,6.6-29,10
						C1278.3,201.7,1279.6,206.5,1282.7,205.4L1282.7,205.4z"/>
				</g>
			</g>
			<g>
				<g>
					<path class="st1" d="M1424.7,185.8c12.5-2.7,24.8-6.1,36.9-10.3c3-1,1.7-5.9-1.3-4.8c-12.1,4.2-24.4,7.6-36.9,10.3
						C1420.3,181.6,1421.6,186.4,1424.7,185.8L1424.7,185.8z"/>
				</g>
			</g>
			<g>
				<g>
					<path class="st1" d="M1474.7,135.9c6.5-2.2,12.7-5.1,18.5-8.8c2.7-1.7,0.2-6.1-2.5-4.3c-5.4,3.5-11.2,6.2-17.3,8.3
						C1470.4,132.2,1471.7,137,1474.7,135.9L1474.7,135.9z"/>
				</g>
			</g>
			<g>
				<g>
					<path class="st1" d="M1513.5,85c6.6-2.8,13.3-5.2,20.1-7.2c3.1-0.9,1.8-5.7-1.3-4.8c-6.8,2-13.6,4.4-20.1,7.2
						C1509.3,81.4,1510.6,86.2,1513.5,85L1513.5,85z"/>
				</g>
			</g>
			<g>
				<g>
					<path class="st1" d="M1545.5,36.9c11.8-4.4,23.8-7.9,36.1-10.5c3.1-0.7,1.8-5.5-1.3-4.8c-12.3,2.6-24.4,6.1-36.1,10.5
						C1541.2,33.2,1542.5,38,1545.5,36.9L1545.5,36.9z"/>
				</g>
			</g>
			<g>
				<g>
					<path class="st1" d="M1603,76.4c11.9-1.5,23.8-3.2,35.6-5.4c3.2-0.6,1.8-5.4-1.3-4.8c-11.4,2-22.8,3.8-34.3,5.2
						C1599.9,71.8,1599.8,76.8,1603,76.4L1603,76.4z"/>
				</g>
			</g>
			<g>
				<g>
					<path class="st1" d="M1591.6,122.4c11-1.6,22-3.3,33-4.9c3.2-0.5,1.8-5.3-1.3-4.8c-11,1.6-22,3.3-33,4.9
						C1587.1,118,1588.5,122.8,1591.6,122.4L1591.6,122.4z"/>
				</g>
			</g>
			<g>
				<g>
					<path class="st1" d="M1588.7,177.3c9.7-2.1,19.4-3.5,29.3-4.1c3.2-0.2,3.2-5.2,0-5c-10.3,0.6-20.5,2.1-30.6,4.3
						C1584.2,173.2,1585.5,178,1588.7,177.3L1588.7,177.3z"/>
				</g>
			</g>
			<g>
				<g>
					<path class="st1" d="M1517.6,174.7c9.3-3.9,18.7-7.7,28-11.6c2.9-1.2,1.6-6.1-1.3-4.8c-9.3,3.9-18.7,7.7-28,11.6
						C1513.4,171.1,1514.6,175.9,1517.6,174.7L1517.6,174.7z"/>
				</g>
			</g>
		</g>
		<g>
			<g>
				<path class="st1" d="M1671.2,206.8c8.3-3.9,16.7-7.7,25-11.6c2.9-1.4,0.4-5.7-2.5-4.3c-8.3,3.9-16.7,7.7-25,11.6
					C1665.8,203.8,1668.3,208.2,1671.2,206.8L1671.2,206.8z"/>
			</g>
		</g>
		<g>
			<g>
				<path class="st1" d="M1693.2,162.8c8.5-4.7,17.3-8.7,26.5-12.1c3-1.1,1.7-6-1.3-4.8c-9.5,3.6-18.7,7.7-27.6,12.6
					C1687.9,160,1690.4,164.4,1693.2,162.8L1693.2,162.8z"/>
			</g>
		</g>
		<g>
			<g>
				<path class="st1" d="M1705.1,80.6c9.3-4.2,18.8-7.5,28.6-10.2c3.1-0.9,1.8-5.7-1.3-4.8c-10.2,2.8-20.1,6.4-29.8,10.7
					C1699.6,77.5,1702.2,81.9,1705.1,80.6L1705.1,80.6z"/>
			</g>
		</g>
		<g>
			<g>
				<path class="st1" d="M1717,32.2c6.7-0.8,13.3-1.7,20-2.5c3.2-0.4,3.2-5.4,0-5c-6.7,0.8-13.3,1.7-20,2.5
					C1713.8,27.6,1713.8,32.6,1717,32.2L1717,32.2z"/>
			</g>
		</g>
		<g>
			<g>
				<path class="st1" d="M1739,112.7c9.3-0.9,18.5-2.4,27.6-4.4c3.1-0.7,1.8-5.5-1.3-4.8c-8.7,1.9-17.5,3.3-26.3,4.2
					C1735.8,108.1,1735.8,113.1,1739,112.7L1739,112.7z"/>
			</g>
		</g>
		<g>
			<g>
				<path class="st1" d="M1790.5,59.2c9.3-0.9,18.5-2.4,27.6-4.4c3.1-0.7,1.8-5.5-1.3-4.8c-8.7,1.9-17.5,3.3-26.3,4.2
					C1787.3,54.5,1787.3,59.5,1790.5,59.2L1790.5,59.2z"/>
			</g>
		</g>
		<g>
			<g>
				<path class="st1" d="M1771,167.5c11-0.9,22-1.7,33-2.6c3.2-0.3,3.2-5.3,0-5c-11,0.9-22,1.7-33,2.6
					C1767.8,162.8,1767.8,167.8,1771,167.5L1771,167.5z"/>
			</g>
		</g>
		<g>
			<g>
				<path class="st1" d="M1761.6,204.5c9.4-3,18.7-5.9,28.1-8.9c3.1-1,1.8-5.8-1.3-4.8c-9.4,3-18.7,5.9-28.1,8.9
					C1757.2,200.6,1758.5,205.4,1761.6,204.5L1761.6,204.5z"/>
			</g>
		</g>
		<g>
			<g>
				<path class="st1" d="M1198.7,183.9c10.3-1.4,20.7-2.8,31-4.2c3.2-0.4,1.8-5.2-1.3-4.8c-10.3,1.4-20.7,2.8-31,4.2
					C1194.2,179.5,1195.5,184.3,1198.7,183.9L1198.7,183.9z"/>
			</g>
		</g>
		<g>
			<g>
				<path class="st1" d="M1209.7,43c15.3-2.5,30.6-5.1,46-7.6c3.2-0.5,1.8-5.3-1.3-4.8c-15.3,2.5-30.6,5.1-46,7.6
					C1205.2,38.7,1206.5,43.5,1209.7,43L1209.7,43z"/>
			</g>
		</g>
	</g>
</g>
</svg>
